<svg width="17" height="16" viewBox="0 0 17 16" fill="none" xmlns="http://www.w3.org/2000/svg">
<rect width="16.8188" height="15.8188" rx="2.40941" fill="#1B1F22"/>
<path d="M7.10851 6.63879V9.46503C7.10851 10.1397 6.9278 10.6456 6.56639 10.983C6.2098 11.3155 5.67973 11.4817 4.97618 11.4817C4.27745 11.4817 3.74738 11.3155 3.38597 10.983C3.02456 10.6456 2.84385 10.1397 2.84385 9.46503V6.63879H4.09434V9.48671C4.09434 9.82885 4.16662 10.0842 4.31118 10.2529C4.46057 10.4216 4.68223 10.5059 4.97618 10.5059C5.27495 10.5059 5.49661 10.4216 5.64118 10.2529C5.79056 10.0842 5.86525 9.82885 5.86525 9.48671V6.63879H7.10851Z" fill="white"/>
<path d="M9.1996 10.7155L8.91047 10.1565H13.3534V11.4094H7.89851V10.2144L11.956 5.74249L12.2451 6.30147H7.96598V5.04858H13.2378V6.24365L9.1996 10.7155Z" fill="#DBFF00"/>
</svg>
