<?xml version="1.0" standalone="no"?>
<!DOCTYPE svg PUBLIC "-//W3C//DTD SVG 20010904//EN"
 "http://www.w3.org/TR/2001/REC-SVG-20010904/DTD/svg10.dtd">
<svg version="1.0" xmlns="http://www.w3.org/2000/svg"
 width="544.000000pt" height="544.000000pt" viewBox="0 0 544.000000 544.000000"
 preserveAspectRatio="xMidYMid meet">
<metadata>
Created by potrace 1.14, written by Peter Selinger 2001-2017
</metadata>
<g transform="translate(0.000000,544.000000) scale(0.100000,-0.100000)"
fill="#000000" stroke="none">
<path d="M635 5269 c-236 -52 -405 -170 -530 -369 -16 -25 -28 -46 -27 -47 1
-2 -8 -24 -19 -50 -11 -27 -29 -82 -39 -123 -18 -72 -19 -159 -19 -1936 0
-1267 3 -1871 10 -1895 6 -19 13 -46 15 -62 3 -15 12 -39 20 -55 7 -15 14 -32
14 -39 0 -15 42 -92 82 -150 101 -149 300 -278 473 -308 11 -2 36 -6 55 -10
45 -9 3981 -9 4040 0 210 31 391 136 516 300 29 38 103 164 103 175 0 5 4 18
21 70 8 24 12 42 26 120 8 48 7 3677 -1 3720 -4 19 -8 44 -10 55 -11 62 -22
95 -63 185 -49 108 -162 234 -272 305 -62 40 -151 82 -191 91 -11 2 -29 7 -41
10 -13 3 -43 10 -68 14 -60 12 -4044 10 -4095 -1z"/>
</g>
</svg>
