<svg width="24" height="24" viewBox="0 0 24 24" fill="none" xmlns="http://www.w3.org/2000/svg">
<path fill-rule="evenodd" clip-rule="evenodd" d="M3 15.0769C3 15.689 3.21882 16.2759 3.60832 16.7087C3.99782 17.1415 4.52609 17.3846 5.07692 17.3846H7.15385V15.8462H5.07692C4.89331 15.8462 4.71722 15.7651 4.58739 15.6209C4.45755 15.4766 4.38462 15.2809 4.38462 15.0769V4.30769C4.38462 4.10368 4.45755 3.90802 4.58739 3.76376C4.71722 3.61951 4.89331 3.53846 5.07692 3.53846H14.7692C14.9528 3.53846 15.1289 3.61951 15.2588 3.76376C15.3886 3.90802 15.4615 4.10368 15.4615 4.30769V6.61538H9.23077C8.67993 6.61538 8.15166 6.85852 7.76216 7.29129C7.37266 7.72407 7.15385 8.31104 7.15385 8.92308V19.6923C7.15385 20.3043 7.37266 20.8913 7.76216 21.3241C8.15166 21.7569 8.67993 22 9.23077 22H18.9231C19.4739 22 20.0022 21.7569 20.3917 21.3241C20.7812 20.8913 21 20.3043 21 19.6923V8.92308C21 8.31104 20.7812 7.72407 20.3917 7.29129C20.0022 6.85852 19.4739 6.61538 18.9231 6.61538H16.8462V4.30769C16.8462 3.69565 16.6273 3.10868 16.2378 2.67591C15.8483 2.24313 15.3201 2 14.7692 2H5.07692C4.52609 2 3.99782 2.24313 3.60832 2.67591C3.21882 3.10868 3 3.69565 3 4.30769V15.0769ZM8.53846 8.92308C8.53846 8.71906 8.6114 8.52341 8.74123 8.37915C8.87107 8.23489 9.04716 8.15385 9.23077 8.15385H18.9231C19.1067 8.15385 19.2828 8.23489 19.4126 8.37915C19.5424 8.52341 19.6154 8.71906 19.6154 8.92308V19.6923C19.6154 19.8963 19.5424 20.092 19.4126 20.2362C19.2828 20.3805 19.1067 20.4615 18.9231 20.4615H9.23077C9.04716 20.4615 8.87107 20.3805 8.74123 20.2362C8.6114 20.092 8.53846 19.8963 8.53846 19.6923V8.92308Z" fill="#121417" stroke="#121417" stroke-width="0.3"/>
</svg>
