<svg width="34" height="34" viewBox="0 0 34 34" fill="none" xmlns="http://www.w3.org/2000/svg">
<path d="M12.3862 23.5235C12.0908 23.8189 11.7069 24.0016 11.3191 24.0314C10.9312 24.0613 10.571 23.9358 10.3179 23.6826C10.0647 23.4294 9.93923 23.0693 9.96907 22.6814C9.99891 22.2935 10.1816 21.9097 10.477 21.6143L21.6139 10.4774C21.9093 10.182 22.2931 9.99933 22.681 9.9695C23.0689 9.93966 23.429 10.0651 23.6822 10.3183C23.9354 10.5715 24.0608 10.9316 24.031 11.3195C24.0012 11.7074 23.8185 12.0912 23.5231 12.3866L12.3862 23.5235Z" fill="#DBFF00"/>
<path d="M10.3154 12.228C10.0116 11.9242 9.82083 11.5323 9.78503 11.1384C9.74923 10.7446 9.87134 10.3811 10.1245 10.1279C10.3777 9.87475 10.7412 9.75263 11.135 9.78844C11.5289 9.82424 11.9208 10.015 12.2246 10.3188L23.6798 21.774C23.9836 22.0778 24.1744 22.4697 24.2102 22.8636C24.246 23.2574 24.1238 23.6209 23.8707 23.8741C23.6175 24.1273 23.254 24.2494 22.8602 24.2136C22.4663 24.1778 22.0744 23.987 21.7706 23.6832L10.3154 12.228Z" fill="#DBFF00"/>
</svg>
