<svg width="24" height="24" viewBox="0 0 24 24" fill="none" xmlns="http://www.w3.org/2000/svg">
<path d="M12 21.5C6.75314 21.5 2.5 17.2469 2.5 12C2.5 6.75314 6.75314 2.5 12 2.5C17.2469 2.5 21.5 6.75314 21.5 12C21.5 17.2469 17.2469 21.5 12 21.5ZM12 20.5C14.2543 20.5 16.4163 19.6045 18.0104 18.0104C19.6045 16.4163 20.5 14.2543 20.5 12C20.5 9.74566 19.6045 7.58365 18.0104 5.98959C16.4163 4.39553 14.2543 3.5 12 3.5C9.74566 3.5 7.58365 4.39553 5.98959 5.98959C4.39553 7.58365 3.5 9.74566 3.5 12C3.5 14.2543 4.39553 16.4163 5.98959 18.0104C7.58365 19.6045 9.74566 20.5 12 20.5ZM12 10.5C12.1326 10.5 12.2598 10.5527 12.3536 10.6464C12.4473 10.7402 12.5 10.8674 12.5 11V16C12.5 16.1326 12.4473 16.2598 12.3536 16.3536C12.2598 16.4473 12.1326 16.5 12 16.5C11.8674 16.5 11.7402 16.4473 11.6464 16.3536C11.5527 16.2598 11.5 16.1326 11.5 16V11C11.5 10.8674 11.5527 10.7402 11.6464 10.6464C11.7402 10.5527 11.8674 10.5 12 10.5ZM12 8.5C11.8674 8.5 11.7402 8.44732 11.6464 8.35355C11.5527 8.25978 11.5 8.13261 11.5 8C11.5 7.86739 11.5527 7.74022 11.6464 7.64645C11.7402 7.55268 11.8674 7.5 12 7.5C12.1326 7.5 12.2598 7.55268 12.3536 7.64645C12.4473 7.74022 12.5 7.86739 12.5 8C12.5 8.13261 12.4473 8.25978 12.3536 8.35355C12.2598 8.44732 12.1326 8.5 12 8.5Z" fill="black" stroke="#DBFF00"/>
</svg>
