<svg width="158" height="28" viewBox="0 0 158 28" fill="none" xmlns="http://www.w3.org/2000/svg">
<path d="M11.34 9.97785V17.1001C11.34 18.8002 10.8846 20.0752 9.97385 20.9253C9.07522 21.7632 7.73943 22.1822 5.96646 22.1822C4.20564 22.1822 2.86985 21.7632 1.95908 20.9253C1.04831 20.0752 0.592923 18.8002 0.592923 17.1001V9.97785H3.74418V17.1547C3.74418 18.0169 3.92634 18.6605 4.29065 19.0855C4.6671 19.5106 5.2257 19.7231 5.96646 19.7231C6.71936 19.7231 7.27797 19.5106 7.64228 19.0855C8.01873 18.6605 8.20695 18.0169 8.20695 17.1547V9.97785H11.34ZM24.6001 9.97785V22H21.121L17.3868 15.4971L16.476 13.712H16.4578L16.5307 15.9343V22H13.7619V9.97785H17.2411L20.9752 16.4807L21.886 18.2658H21.9042L21.8314 16.0436V9.97785H24.6001ZM32.3637 9.97785C34.2459 9.97785 35.685 10.5 36.6807 11.5444C37.6887 12.5887 38.1926 14.0702 38.1926 15.9889C38.1926 17.9076 37.6887 19.3891 36.6807 20.4335C35.685 21.4778 34.2459 22 32.3637 22H27.2634V9.97785H32.3637ZM32.054 19.632C33.0741 19.632 33.8148 19.3284 34.2763 18.7212C34.7499 18.1019 34.9867 17.1911 34.9867 15.9889C34.9867 14.7867 34.7499 13.882 34.2763 13.2748C33.8148 12.6555 33.0741 12.3458 32.054 12.3458H30.3964V19.632H32.054ZM46.0757 9.97785C47.5087 9.97785 48.6198 10.3179 49.4092 10.9979C50.2106 11.6658 50.6114 12.5584 50.6114 13.6756C50.6114 14.9021 50.2167 15.8371 49.4274 16.4807C48.638 17.1243 47.5269 17.4462 46.094 17.4462L45.8025 17.6101H43.4163V22H40.3379V9.97785H46.0757ZM45.6386 15.3878C46.2458 15.3878 46.7011 15.2664 47.0047 15.0235C47.3083 14.7806 47.4601 14.392 47.4601 13.8577C47.4601 13.3355 47.3083 12.953 47.0047 12.7102C46.7011 12.4673 46.2458 12.3458 45.6386 12.3458H43.4163V15.3878H45.6386ZM47.4783 16.0436L51.3218 22H47.8609L44.7825 16.7358L47.4783 16.0436ZM52.8966 22V9.97785H62.2593V12.4005H56.0296V14.8414H60.9842V17.1183H56.0296V19.5774H62.4961V22H52.8966ZM69.0875 9.79569C70.2047 9.79569 71.1883 9.97177 72.0384 10.3239C72.9006 10.664 73.6474 11.1679 74.2789 11.8358L72.767 13.8577C72.2448 13.3113 71.6801 12.9045 71.0729 12.6373C70.4779 12.358 69.7979 12.2183 69.0328 12.2183C68.5835 12.2183 68.2192 12.2669 67.9399 12.3641C67.6606 12.4612 67.4602 12.5948 67.3388 12.7648C67.2174 12.9348 67.1566 13.1291 67.1566 13.3477C67.1566 13.6027 67.272 13.8213 67.5027 14.0034C67.7456 14.1735 68.1342 14.3192 68.6685 14.4406L70.6904 14.896C71.8926 15.1753 72.773 15.5821 73.3317 16.1164C73.8903 16.6507 74.1696 17.3611 74.1696 18.2476C74.1696 19.0977 73.951 19.8202 73.5138 20.4153C73.0766 20.9982 72.4755 21.4414 71.7105 21.745C70.9454 22.0364 70.0711 22.1822 69.0875 22.1822C68.286 22.1822 67.5209 22.0971 66.7923 21.9271C66.0637 21.745 65.408 21.49 64.8251 21.1621C64.2422 20.8342 63.7504 20.4578 63.3496 20.0327L64.8615 17.938C65.1651 18.2901 65.5355 18.6059 65.9726 18.8852C66.4219 19.1523 66.9077 19.3648 67.4299 19.5227C67.9642 19.6806 68.5046 19.7595 69.051 19.7595C69.4761 19.7595 69.8282 19.717 70.1075 19.632C70.399 19.547 70.6115 19.4195 70.7451 19.2495C70.8786 19.0795 70.9454 18.8791 70.9454 18.6484C70.9454 18.3934 70.8544 18.1808 70.6722 18.0108C70.4901 17.8287 70.144 17.6769 69.6339 17.5554L67.4117 17.0636C66.7316 16.9058 66.1244 16.6993 65.5901 16.4443C65.0679 16.1771 64.6551 15.825 64.3515 15.3878C64.0479 14.9385 63.8961 14.3799 63.8961 13.712C63.8961 12.9591 64.1025 12.2912 64.5154 11.7083C64.9283 11.1133 65.5233 10.6457 66.3005 10.3057C67.0777 9.9657 68.0067 9.79569 69.0875 9.79569ZM80.8279 9.79569C81.9451 9.79569 82.9287 9.97177 83.7787 10.3239C84.6409 10.664 85.3878 11.1679 86.0192 11.8358L84.5074 13.8577C83.9852 13.3113 83.4205 12.9045 82.8133 12.6373C82.2183 12.358 81.5383 12.2183 80.7732 12.2183C80.3239 12.2183 79.9596 12.2669 79.6803 12.3641C79.401 12.4612 79.2006 12.5948 79.0792 12.7648C78.9577 12.9348 78.897 13.1291 78.897 13.3477C78.897 13.6027 79.0124 13.8213 79.2431 14.0034C79.486 14.1735 79.8746 14.3192 80.4089 14.4406L82.4308 14.896C83.633 15.1753 84.5134 15.5821 85.072 16.1164C85.6306 16.6507 85.9099 17.3611 85.9099 18.2476C85.9099 19.0977 85.6914 19.8202 85.2542 20.4153C84.817 20.9982 84.2159 21.4414 83.4509 21.745C82.6858 22.0364 81.8115 22.1822 80.8279 22.1822C80.0264 22.1822 79.2613 22.0971 78.5327 21.9271C77.8041 21.745 77.1483 21.49 76.5655 21.1621C75.9826 20.8342 75.4907 20.4578 75.09 20.0327L76.6019 17.938C76.9055 18.2901 77.2759 18.6059 77.713 18.8852C78.1623 19.1523 78.6481 19.3648 79.1703 19.5227C79.7046 19.6806 80.245 19.7595 80.7914 19.7595C81.2164 19.7595 81.5686 19.717 81.8479 19.632C82.1394 19.547 82.3519 19.4195 82.4855 19.2495C82.619 19.0795 82.6858 18.8791 82.6858 18.6484C82.6858 18.3934 82.5947 18.1808 82.4126 18.0108C82.2304 17.8287 81.8843 17.6769 81.3743 17.5554L79.152 17.0636C78.472 16.9058 77.8648 16.6993 77.3305 16.4443C76.8083 16.1771 76.3954 15.825 76.0919 15.3878C75.7883 14.9385 75.6365 14.3799 75.6365 13.712C75.6365 12.9591 75.8429 12.2912 76.2558 11.7083C76.6687 11.1133 77.2637 10.6457 78.0409 10.3057C78.8181 9.9657 79.7471 9.79569 80.8279 9.79569ZM89.1624 18.867C89.7331 18.867 90.1764 19.0127 90.4921 19.3041C90.82 19.5956 90.9839 20.0024 90.9839 20.5246C90.9839 21.0346 90.82 21.4353 90.4921 21.7268C90.1764 22.0182 89.7331 22.1639 89.1624 22.1639C88.6038 22.1639 88.1605 22.0182 87.8327 21.7268C87.5048 21.4353 87.3408 21.0346 87.3408 20.5246C87.3408 20.0024 87.5048 19.5956 87.8327 19.3041C88.1605 19.0127 88.6038 18.867 89.1624 18.867Z" fill="white"/>
<path d="M95.9817 20.2513L95.2531 18.8427H106.45V22H92.703V18.9884L102.928 7.71914L103.656 9.12779H92.873V5.97046H106.158V8.98207L95.9817 20.2513ZM116.041 5.72759C117.66 5.72759 119.052 6.05951 120.218 6.72336C121.4 7.37102 122.307 8.31012 122.938 9.54068C123.57 10.7712 123.885 12.2527 123.885 13.9852C123.885 15.7177 123.57 17.1992 122.938 18.4298C122.307 19.6603 121.4 20.6075 120.218 21.2714C119.052 21.919 117.66 22.2429 116.041 22.2429C114.422 22.2429 113.021 21.919 111.839 21.2714C110.657 20.6075 109.75 19.6603 109.119 18.4298C108.487 17.1992 108.172 15.7177 108.172 13.9852C108.172 12.2527 108.487 10.7712 109.119 9.54068C109.75 8.31012 110.657 7.37102 111.839 6.72336C113.021 6.05951 114.422 5.72759 116.041 5.72759ZM116.041 9.00636C115.263 9.00636 114.608 9.19256 114.073 9.56496C113.539 9.93737 113.134 10.496 112.859 11.2408C112.584 11.9694 112.446 12.8842 112.446 13.9852C112.446 15.0701 112.584 15.9849 112.859 16.7297C113.134 17.4745 113.539 18.0331 114.073 18.4055C114.608 18.7779 115.263 18.9641 116.041 18.9641C116.818 18.9641 117.466 18.7779 117.984 18.4055C118.518 18.0331 118.923 17.4745 119.198 16.7297C119.473 15.9849 119.611 15.0701 119.611 13.9852C119.611 12.8842 119.473 11.9694 119.198 11.2408C118.923 10.496 118.518 9.93737 117.984 9.56496C117.466 9.19256 116.818 9.00636 116.041 9.00636ZM141.21 5.97046V22H136.571L131.592 13.3295L130.378 10.9493H130.353L130.45 13.9124V22H126.759V5.97046H131.398L136.376 14.641L137.591 17.0211H137.615L137.518 14.0581V5.97046H141.21ZM144.761 22V5.97046H157.244V9.20065H148.938V12.4551H155.544V15.491H148.938V18.7698H157.56V22H144.761Z" fill="#DBFF00"/>
</svg>
