<svg width="36" height="36" viewBox="0 0 36 36" fill="none" xmlns="http://www.w3.org/2000/svg">
<path fill-rule="evenodd" clip-rule="evenodd" d="M33 18C33 26.2845 26.2845 33 18 33C9.7155 33 3 26.2845 3 18C3 9.7155 9.7155 3 18 3C26.2845 3 33 9.7155 33 18ZM22.5 13.5C22.5 14.6935 22.0259 15.8381 21.182 16.682C20.3381 17.5259 19.1935 18 18 18C16.8065 18 15.6619 17.5259 14.818 16.682C13.9741 15.8381 13.5 14.6935 13.5 13.5C13.5 12.3065 13.9741 11.1619 14.818 10.318C15.6619 9.47411 16.8065 9 18 9C19.1935 9 20.3381 9.47411 21.182 10.318C22.0259 11.1619 22.5 12.3065 22.5 13.5ZM18 30.75C20.5744 30.7541 23.0892 29.9752 25.2105 28.5165C26.1165 27.894 26.5035 26.709 25.9755 25.7445C24.885 23.745 22.635 22.5 18 22.5C13.365 22.5 11.115 23.745 10.023 25.7445C9.4965 26.709 9.8835 27.894 10.7895 28.5165C12.9108 29.9752 15.4256 30.7541 18 30.75Z" fill="white"/>
</svg>
