<svg width="25" height="24" viewBox="0 0 25 24" fill="none" xmlns="http://www.w3.org/2000/svg">
<path d="M8.5 7V6C8.5 5.73478 8.60536 5.48043 8.79289 5.29289C8.98043 5.10536 9.23478 5 9.5 5H20.5C20.7652 5 21.0196 5.10536 21.2071 5.29289C21.3946 5.48043 21.5 5.73478 21.5 6V13C21.5 13.2652 21.3946 13.5196 21.2071 13.7071C21.0196 13.8946 20.7652 14 20.5 14H19.5M3.5 18V11C3.5 10.7348 3.60536 10.4804 3.79289 10.2929C3.98043 10.1054 4.23478 10 4.5 10H15.5C15.7652 10 16.0196 10.1054 16.2071 10.2929C16.3946 10.4804 16.5 10.7348 16.5 11V18C16.5 18.2652 16.3946 18.5196 16.2071 18.7071C16.0196 18.8946 15.7652 19 15.5 19H4.5C4.23478 19 3.98043 18.8946 3.79289 18.7071C3.60536 18.5196 3.5 18.2652 3.5 18ZM11.5 14.5C11.5 14.8978 11.342 15.2794 11.0607 15.5607C10.7794 15.842 10.3978 16 10 16C9.60218 16 9.22064 15.842 8.93934 15.5607C8.65804 15.2794 8.5 14.8978 8.5 14.5C8.5 14.1022 8.65804 13.7206 8.93934 13.4393C9.22064 13.158 9.60218 13 10 13C10.3978 13 10.7794 13.158 11.0607 13.4393C11.342 13.7206 11.5 14.1022 11.5 14.5Z" stroke="#121417" stroke-width="1.5" stroke-linecap="round"/>
</svg>
