<svg width="40" height="40" viewBox="0 0 40 40" fill="none" xmlns="http://www.w3.org/2000/svg">
<path d="M18.3331 8.33317V26.9498L10.1998 18.8165C9.54978 18.1665 8.48311 18.1665 7.83311 18.8165C7.6786 18.9707 7.55602 19.1538 7.47239 19.3555C7.38875 19.5571 7.3457 19.7732 7.3457 19.9915C7.3457 20.2098 7.38875 20.4259 7.47239 20.6275C7.55602 20.8292 7.6786 21.0123 7.83311 21.1665L18.8164 32.1498C19.4664 32.7998 20.5164 32.7998 21.1664 32.1498L32.1498 21.1665C32.3041 21.0122 32.4265 20.829 32.51 20.6274C32.5935 20.4258 32.6365 20.2097 32.6365 19.9915C32.6365 19.7733 32.5935 19.5572 32.51 19.3556C32.4265 19.154 32.3041 18.9708 32.1498 18.8165C31.9955 18.6622 31.8123 18.5398 31.6107 18.4563C31.4091 18.3728 31.193 18.3298 30.9748 18.3298C30.7566 18.3298 30.5405 18.3728 30.3389 18.4563C30.1373 18.5398 29.9541 18.6622 29.7998 18.8165L21.6664 26.9498V8.33317C21.6664 7.4165 20.9164 6.6665 19.9998 6.6665C19.0831 6.6665 18.3331 7.4165 18.3331 8.33317Z" fill="#DBFF00"/>
</svg>
