<svg width="25" height="24" viewBox="0 0 25 24" fill="none" xmlns="http://www.w3.org/2000/svg">
<path d="M19.5004 10.9999H8.33041L13.2104 6.11991C13.6004 5.72991 13.6004 5.08991 13.2104 4.69991C13.1179 4.60721 13.008 4.53366 12.887 4.48348C12.7661 4.4333 12.6364 4.40747 12.5054 4.40747C12.3744 4.40747 12.2448 4.4333 12.1238 4.48348C12.0028 4.53366 11.8929 4.60721 11.8004 4.69991L5.21041 11.2899C5.11771 11.3824 5.04416 11.4923 4.99398 11.6133C4.9438 11.7343 4.91797 11.8639 4.91797 11.9949C4.91797 12.1259 4.9438 12.2556 4.99398 12.3765C5.04416 12.4975 5.11771 12.6074 5.21041 12.6999L11.8004 19.2899C11.893 19.3825 12.0029 19.4559 12.1239 19.506C12.2448 19.5561 12.3745 19.5819 12.5054 19.5819C12.6363 19.5819 12.766 19.5561 12.887 19.506C13.0079 19.4559 13.1178 19.3825 13.2104 19.2899C13.303 19.1973 13.3764 19.0874 13.4265 18.9665C13.4766 18.8455 13.5024 18.7158 13.5024 18.5849C13.5024 18.454 13.4766 18.3243 13.4265 18.2034C13.3764 18.0824 13.303 17.9725 13.2104 17.8799L8.33041 12.9999H19.5004C20.0504 12.9999 20.5004 12.5499 20.5004 11.9999C20.5004 11.4499 20.0504 10.9999 19.5004 10.9999Z" fill="#DBFF00"/>
</svg>
