<svg width="208" height="23" viewBox="0 0 208 23" fill="none" xmlns="http://www.w3.org/2000/svg">
<path d="M14.6 6.16V15.544C14.6 17.784 14 19.464 12.8 20.584C11.616 21.688 9.856 22.24 7.52 22.24C5.2 22.24 3.44 21.688 2.24 20.584C1.04 19.464 0.44 17.784 0.44 15.544V6.16H4.592V15.616C4.592 16.752 4.832 17.6 5.312 18.16C5.808 18.72 6.544 19 7.52 19C8.512 19 9.248 18.72 9.728 18.16C10.224 17.6 10.472 16.752 10.472 15.616V6.16H14.6ZM32.0711 6.16V22H27.4871L22.5671 13.432L21.3671 11.08H21.3431L21.4391 14.008V22H17.7911V6.16H22.3751L27.2951 14.728L28.4951 17.08H28.5191L28.4231 14.152V6.16H32.0711ZM42.3001 6.16C44.7801 6.16 46.6761 6.848 47.9881 8.224C49.3161 9.6 49.9801 11.552 49.9801 14.08C49.9801 16.608 49.3161 18.56 47.9881 19.936C46.6761 21.312 44.7801 22 42.3001 22H35.5801V6.16H42.3001ZM41.8921 18.88C43.2361 18.88 44.2121 18.48 44.8201 17.68C45.4441 16.864 45.7561 15.664 45.7561 14.08C45.7561 12.496 45.4441 11.304 44.8201 10.504C44.2121 9.688 43.2361 9.28 41.8921 9.28H39.7081V18.88H41.8921ZM60.3667 6.16C62.2547 6.16 63.7187 6.608 64.7587 7.504C65.8147 8.384 66.3427 9.56 66.3427 11.032C66.3427 12.648 65.8227 13.88 64.7827 14.728C63.7427 15.576 62.2787 16 60.3907 16L60.0067 16.216H56.8627V22H52.8067V6.16H60.3667ZM59.7907 13.288C60.5907 13.288 61.1907 13.128 61.5907 12.808C61.9907 12.488 62.1907 11.976 62.1907 11.272C62.1907 10.584 61.9907 10.08 61.5907 9.76C61.1907 9.44 60.5907 9.28 59.7907 9.28H56.8627V13.288H59.7907ZM62.2147 14.152L67.2787 22H62.7187L58.6627 15.064L62.2147 14.152ZM69.3536 22V6.16H81.6896V9.352H73.4816V12.568H80.0096V15.568H73.4816V18.808H82.0016V22H69.3536ZM90.6862 5.92C92.1582 5.92 93.4542 6.152 94.5742 6.616C95.7102 7.064 96.6942 7.728 97.5262 8.608L95.5342 11.272C94.8462 10.552 94.1022 10.016 93.3022 9.664C92.5182 9.296 91.6222 9.112 90.6142 9.112C90.0222 9.112 89.5422 9.176 89.1742 9.304C88.8062 9.432 88.5422 9.608 88.3822 9.832C88.2222 10.056 88.1422 10.312 88.1422 10.6C88.1422 10.936 88.2942 11.224 88.5982 11.464C88.9182 11.688 89.4302 11.88 90.1342 12.04L92.7982 12.64C94.3822 13.008 95.5422 13.544 96.2782 14.248C97.0142 14.952 97.3822 15.888 97.3822 17.056C97.3822 18.176 97.0942 19.128 96.5182 19.912C95.9422 20.68 95.1502 21.264 94.1422 21.664C93.1342 22.048 91.9822 22.24 90.6862 22.24C89.6302 22.24 88.6222 22.128 87.6622 21.904C86.7022 21.664 85.8382 21.328 85.0702 20.896C84.3022 20.464 83.6542 19.968 83.1262 19.408L85.1182 16.648C85.5182 17.112 86.0062 17.528 86.5822 17.896C87.1742 18.248 87.8142 18.528 88.5022 18.736C89.2062 18.944 89.9182 19.048 90.6382 19.048C91.1982 19.048 91.6622 18.992 92.0302 18.88C92.4142 18.768 92.6942 18.6 92.8702 18.376C93.0462 18.152 93.1342 17.888 93.1342 17.584C93.1342 17.248 93.0142 16.968 92.7742 16.744C92.5342 16.504 92.0782 16.304 91.4062 16.144L88.4782 15.496C87.5822 15.288 86.7822 15.016 86.0782 14.68C85.3902 14.328 84.8462 13.864 84.4462 13.288C84.0462 12.696 83.8462 11.96 83.8462 11.08C83.8462 10.088 84.1182 9.208 84.6622 8.44C85.2062 7.656 85.9902 7.04 87.0142 6.592C88.0382 6.144 89.2622 5.92 90.6862 5.92ZM106.155 5.92C107.627 5.92 108.923 6.152 110.043 6.616C111.179 7.064 112.163 7.728 112.995 8.608L111.003 11.272C110.315 10.552 109.571 10.016 108.771 9.664C107.987 9.296 107.091 9.112 106.083 9.112C105.491 9.112 105.011 9.176 104.643 9.304C104.275 9.432 104.011 9.608 103.851 9.832C103.691 10.056 103.611 10.312 103.611 10.6C103.611 10.936 103.763 11.224 104.067 11.464C104.387 11.688 104.899 11.88 105.603 12.04L108.267 12.64C109.851 13.008 111.011 13.544 111.747 14.248C112.483 14.952 112.851 15.888 112.851 17.056C112.851 18.176 112.563 19.128 111.987 19.912C111.411 20.68 110.619 21.264 109.611 21.664C108.603 22.048 107.451 22.24 106.155 22.24C105.099 22.24 104.091 22.128 103.131 21.904C102.171 21.664 101.307 21.328 100.539 20.896C99.7709 20.464 99.1229 19.968 98.5949 19.408L100.587 16.648C100.987 17.112 101.475 17.528 102.051 17.896C102.643 18.248 103.283 18.528 103.971 18.736C104.675 18.944 105.387 19.048 106.107 19.048C106.667 19.048 107.131 18.992 107.499 18.88C107.883 18.768 108.163 18.6 108.339 18.376C108.515 18.152 108.603 17.888 108.603 17.584C108.603 17.248 108.483 16.968 108.243 16.744C108.003 16.504 107.547 16.304 106.875 16.144L103.947 15.496C103.051 15.288 102.251 15.016 101.547 14.68C100.859 14.328 100.315 13.864 99.9149 13.288C99.5149 12.696 99.3149 11.96 99.3149 11.08C99.3149 10.088 99.5869 9.208 100.131 8.44C100.675 7.656 101.459 7.04 102.483 6.592C103.507 6.144 104.731 5.92 106.155 5.92ZM117.136 17.872C117.888 17.872 118.472 18.064 118.888 18.448C119.32 18.832 119.536 19.368 119.536 20.056C119.536 20.728 119.32 21.256 118.888 21.64C118.472 22.024 117.888 22.216 117.136 22.216C116.4 22.216 115.816 22.024 115.384 21.64C114.952 21.256 114.736 20.728 114.736 20.056C114.736 19.368 114.952 18.832 115.384 18.448C115.816 18.064 116.4 17.872 117.136 17.872Z" fill="white"/>
<path d="M126.121 19.696L125.161 17.84H139.913V22H121.801V18.032L135.273 3.184L136.233 5.04H122.025V0.879999H139.529V4.848L126.121 19.696ZM152.55 0.559999C154.684 0.559999 156.518 0.997333 158.054 1.872C159.612 2.72533 160.806 3.96267 161.638 5.584C162.47 7.20533 162.886 9.15733 162.886 11.44C162.886 13.7227 162.47 15.6747 161.638 17.296C160.806 18.9173 159.612 20.1653 158.054 21.04C156.518 21.8933 154.684 22.32 152.55 22.32C150.417 22.32 148.572 21.8933 147.014 21.04C145.457 20.1653 144.262 18.9173 143.43 17.296C142.598 15.6747 142.182 13.7227 142.182 11.44C142.182 9.15733 142.598 7.20533 143.43 5.584C144.262 3.96267 145.457 2.72533 147.014 1.872C148.572 0.997333 150.417 0.559999 152.55 0.559999ZM152.55 4.88C151.526 4.88 150.662 5.12533 149.958 5.616C149.254 6.10667 148.721 6.84267 148.358 7.824C147.996 8.784 147.814 9.98933 147.814 11.44C147.814 12.8693 147.996 14.0747 148.358 15.056C148.721 16.0373 149.254 16.7733 149.958 17.264C150.662 17.7547 151.526 18 152.55 18C153.574 18 154.428 17.7547 155.11 17.264C155.814 16.7733 156.348 16.0373 156.71 15.056C157.073 14.0747 157.254 12.8693 157.254 11.44C157.254 9.98933 157.073 8.784 156.71 7.824C156.348 6.84267 155.814 6.10667 155.11 5.616C154.428 5.12533 153.574 4.88 152.55 4.88ZM185.712 0.879999V22H179.6L173.04 10.576L171.44 7.44H171.408L171.536 11.344V22H166.672V0.879999H172.784L179.344 12.304L180.944 15.44H180.976L180.848 11.536V0.879999H185.712ZM190.391 22V0.879999H206.839V5.136H195.895V9.424H204.599V13.424H195.895V17.744H207.255V22H190.391Z" fill="#DBFF00"/>
</svg>
