<svg width="25" height="24" viewBox="0 0 25 24" fill="none" xmlns="http://www.w3.org/2000/svg">
<path d="M8.38215 8.679C8.3801 8.72744 8.38798 8.77579 8.4053 8.82107C8.42263 8.86636 8.44903 8.90762 8.48289 8.94232C8.51675 8.97703 8.55735 9.00444 8.60219 9.02287C8.64704 9.0413 8.69518 9.05036 8.74365 9.0495H9.98115C10.1882 9.0495 10.3532 8.88 10.3802 8.6745C10.5152 7.6905 11.1902 6.9735 12.3932 6.9735C13.4222 6.9735 14.3642 7.488 14.3642 8.7255C14.3642 9.678 13.8032 10.116 12.9167 10.782C11.9072 11.5155 11.1077 12.372 11.1647 13.7625L11.1692 14.088C11.1707 14.1864 11.2109 14.2803 11.2811 14.3493C11.3512 14.4183 11.4457 14.457 11.5442 14.457H12.7607C12.8601 14.457 12.9555 14.4175 13.0258 14.3472C13.0961 14.2768 13.1357 14.1815 13.1357 14.082V13.9245C13.1357 12.8475 13.5452 12.534 14.6507 11.6955C15.5642 11.001 16.5167 10.23 16.5167 8.6115C16.5167 6.345 14.6027 5.25 12.5072 5.25C10.6067 5.25 8.52465 6.135 8.38215 8.679ZM10.7177 17.3235C10.7177 18.123 11.3552 18.714 12.2327 18.714C13.1462 18.714 13.7747 18.123 13.7747 17.3235C13.7747 16.4955 13.1447 15.9135 12.2312 15.9135C11.3552 15.9135 10.7177 16.4955 10.7177 17.3235Z" fill="#DBFF00"/>
</svg>
