<svg width="25" height="25" viewBox="0 0 25 25" fill="none" xmlns="http://www.w3.org/2000/svg">
<path d="M12.5 20.5C10.2667 20.5 8.375 19.725 6.825 18.175C5.275 16.625 4.5 14.7333 4.5 12.5C4.5 10.2667 5.275 8.375 6.825 6.825C8.375 5.275 10.2667 4.5 12.5 4.5C13.65 4.5 14.75 4.73733 15.8 5.212C16.85 5.68667 17.75 6.366 18.5 7.25V5.5C18.5 5.21667 18.596 4.97933 18.788 4.788C18.98 4.59667 19.2173 4.50067 19.5 4.5C19.7833 4.5 20.021 4.596 20.213 4.788C20.405 4.98 20.5007 5.21733 20.5 5.5V10.5C20.5 10.7833 20.404 11.021 20.212 11.213C20.02 11.405 19.7827 11.5007 19.5 11.5H14.5C14.2167 11.5 13.9793 11.404 13.788 11.212C13.5967 11.02 13.5007 10.7827 13.5 10.5C13.5 10.2167 13.596 9.97933 13.788 9.788C13.98 9.59667 14.2173 9.50067 14.5 9.5H17.7C17.1667 8.56667 16.4377 7.83333 15.513 7.3C14.5883 6.76667 13.584 6.5 12.5 6.5C10.8333 6.5 9.41667 7.08333 8.25 8.25C7.08333 9.41667 6.5 10.8333 6.5 12.5C6.5 14.1667 7.08333 15.5833 8.25 16.75C9.41667 17.9167 10.8333 18.5 12.5 18.5C13.6333 18.5 14.671 18.2127 15.613 17.638C16.555 17.0633 17.284 16.2923 17.8 15.325C17.9333 15.0917 18.121 14.9293 18.363 14.838C18.605 14.7467 18.8507 14.7423 19.1 14.825C19.3667 14.9083 19.5583 15.0833 19.675 15.35C19.7917 15.6167 19.7833 15.8667 19.65 16.1C18.9667 17.4333 17.9917 18.5 16.725 19.3C15.4583 20.1 14.05 20.5 12.5 20.5Z" fill="#DBFF00"/>
</svg>
