<svg width="25" height="25" viewBox="0 0 25 25" fill="none" xmlns="http://www.w3.org/2000/svg">
<path d="M6.339 10.6355C4.1375 11.159 2.5 13.1385 2.5 15.5C2.5 18.2615 4.7385 20.5 7.5 20.5C7.9735 20.5 8.432 20.434 8.8665 20.311M18.5275 10.6355C20.729 11.159 22.366 13.1385 22.366 15.5C22.366 18.2615 20.1275 20.5 17.366 20.5C16.8925 20.5 16.434 20.434 16 20.311M18.5 10.5C18.5 7.1865 15.8135 4.5 12.5 4.5C9.1865 4.5 6.5 7.1865 6.5 10.5M9.0325 14.4405L12.5 10.962L16.066 14.5M12.5 19.5V12.731" stroke="#DBFF00" stroke-width="2" stroke-linecap="round" stroke-linejoin="round"/>
</svg>
